<?xml version="1.0" encoding="utf-8"?><svg version="1.1" id="Layer_1" xmlns="http://www.w3.org/2000/svg" xmlns:xlink="http://www.w3.org/1999/xlink" x="0px" y="0px" viewBox="0 0 99.88 122.88" style="enable-background:new 0 0 99.88 122.88" xml:space="preserve"><g><path d="M36.92,4.32c0.6-2.89,3.43-4.74,6.32-4.14c2.89,0.6,4.74,3.43,4.14,6.32l-6.09,29.31h28.77l6.56-31.55 c0.6-2.89,3.43-4.74,6.32-4.14c2.89,0.6,4.74,3.43,4.14,6.32l-6.11,29.38h13.56c2.96,0,5.35,2.4,5.35,5.35s-2.4,5.35-5.35,5.35 H78.74l-6.73,32.35h22.51c2.96,0,5.35,2.4,5.35,5.35c0,2.96-2.4,5.35-5.35,5.35H69.79l-6.04,29.05c-0.6,2.89-3.43,4.74-6.32,4.14 c-2.89-0.6-4.74-3.43-4.14-6.32l5.59-26.88H30.1l-6.01,28.92c-0.6,2.89-3.43,4.74-6.32,4.14c-2.89-0.6-4.74-3.43-4.14-6.32 l5.56-26.75H5.35C2.4,89.57,0,87.17,0,84.22c0-2.96,2.4-5.35,5.35-5.35h16.06l6.73-32.35H5.35C2.4,46.52,0,44.12,0,41.16 s2.4-5.35,5.35-5.35h25.02L36.92,4.32L36.92,4.32z M61.1,78.86l6.73-32.35H39.05l-6.73,32.35H61.1L61.1,78.86z"/></g></svg>